# xmcd
#
# Track frame offsets: 
#        150
#        16008
#        31234
#        50332
#        61627
#        79959
#        95396
#        115627
#        131615
#        157669
#        175477
#
# Disc length: 2601 seconds
#
# Revision: 0
# Processed by: cddbd v1.5.2PL0 Copyright (c) Steve Scherf et al.
# Submitted via: ExactAudioCopyFreeDBPlugin 1.0
#
DISCID=760a270b
DTITLE=Various Artist - Boston Blues Works, Volume 1
DYEAR=2012
DGENRE=Blues
TTITLE0=Ryan Hartt - No Blow, No Show
TTITLE1=Jamie Lynn Hart - Comin’ Home
TTITLE2=Ryan Montbleau - Sho Nuff I Do
TTITLE3=Jesse Dee - Spasms
TTITLE4=Gracie Curran - It’s All Right
TTITLE5=Racky Thomas - Rock lil’ Baby
TTITLE6=Dwight Ritcher - Aint Nobody’s Business
TTITLE7=Rebecca Muir - I Just Wanna Make Love to You
TTITLE8=Toni Lynn Washington - Give Me One Reason
TTITLE9=Cheryl Aruda - Good Lovin’
TTITLE10=Nicole Nelson - Oh What a Dream
EXTD=
EXTT0=
EXTT1=
EXTT2=
EXTT3=
EXTT4=
EXTT5=
EXTT6=
EXTT7=
EXTT8=
EXTT9=
EXTT10=
PLAYORDER=
